<mxfile host="Electron" agent="Mozilla/5.0 (Windows NT 10.0; Win64; x64) AppleWebKit/537.36 (KHTML, like Gecko) draw.io/24.7.17 Chrome/128.0.6613.36 Electron/32.0.1 Safari/537.36" version="24.7.17">
  <diagram id="C5RBs43oDa-KdzZeNtuy" name="Page-1">
    <mxGraphModel dx="1434" dy="886" grid="1" gridSize="10" guides="1" tooltips="1" connect="1" arrows="1" fold="1" page="1" pageScale="1" pageWidth="1169" pageHeight="827" math="0" shadow="0">
      <root>
        <mxCell id="WIyWlLk6GJQsqaUBKTNV-0" />
        <mxCell id="WIyWlLk6GJQsqaUBKTNV-1" parent="WIyWlLk6GJQsqaUBKTNV-0" />
        <mxCell id="novAqWidMg0muof5gRGi-0" value="&lt;i&gt;Door&lt;/i&gt;" style="swimlane;fontStyle=1;align=center;verticalAlign=top;childLayout=stackLayout;horizontal=1;startSize=26;horizontalStack=0;resizeParent=1;resizeParentMax=0;resizeLast=0;collapsible=1;marginBottom=0;whiteSpace=wrap;html=1;" vertex="1" parent="WIyWlLk6GJQsqaUBKTNV-1">
          <mxGeometry x="70" y="30" width="160" height="90" as="geometry" />
        </mxCell>
        <mxCell id="novAqWidMg0muof5gRGi-1" value="&lt;i&gt;# opened: boolean&lt;/i&gt;" style="text;strokeColor=none;fillColor=none;align=left;verticalAlign=top;spacingLeft=4;spacingRight=4;overflow=hidden;rotatable=0;points=[[0,0.5],[1,0.5]];portConstraint=eastwest;whiteSpace=wrap;html=1;" vertex="1" parent="novAqWidMg0muof5gRGi-0">
          <mxGeometry y="26" width="160" height="26" as="geometry" />
        </mxCell>
        <mxCell id="novAqWidMg0muof5gRGi-2" value="" style="line;strokeWidth=1;fillColor=none;align=left;verticalAlign=middle;spacingTop=-1;spacingLeft=3;spacingRight=3;rotatable=0;labelPosition=right;points=[];portConstraint=eastwest;strokeColor=inherit;" vertex="1" parent="novAqWidMg0muof5gRGi-0">
          <mxGeometry y="52" width="160" height="8" as="geometry" />
        </mxCell>
        <mxCell id="novAqWidMg0muof5gRGi-3" value="&lt;i&gt;# open(): boolean&lt;/i&gt;" style="text;strokeColor=none;fillColor=none;align=left;verticalAlign=top;spacingLeft=4;spacingRight=4;overflow=hidden;rotatable=0;points=[[0,0.5],[1,0.5]];portConstraint=eastwest;whiteSpace=wrap;html=1;" vertex="1" parent="novAqWidMg0muof5gRGi-0">
          <mxGeometry y="60" width="160" height="30" as="geometry" />
        </mxCell>
        <mxCell id="novAqWidMg0muof5gRGi-8" value="Room" style="swimlane;fontStyle=3;align=center;verticalAlign=top;childLayout=stackLayout;horizontal=1;startSize=26;horizontalStack=0;resizeParent=1;resizeParentMax=0;resizeLast=0;collapsible=1;marginBottom=0;whiteSpace=wrap;html=1;" vertex="1" parent="WIyWlLk6GJQsqaUBKTNV-1">
          <mxGeometry x="50" y="319" width="170" height="190" as="geometry" />
        </mxCell>
        <mxCell id="novAqWidMg0muof5gRGi-9" value="# solved: boolean&lt;div&gt;# entered: boolean&lt;br&gt;# size: int [][]&lt;/div&gt;&lt;div&gt;# enemy: Enemy&lt;/div&gt;" style="text;strokeColor=none;fillColor=none;align=left;verticalAlign=top;spacingLeft=4;spacingRight=4;overflow=hidden;rotatable=0;points=[[0,0.5],[1,0.5]];portConstraint=eastwest;whiteSpace=wrap;html=1;fontStyle=2" vertex="1" parent="novAqWidMg0muof5gRGi-8">
          <mxGeometry y="26" width="170" height="74" as="geometry" />
        </mxCell>
        <mxCell id="novAqWidMg0muof5gRGi-10" value="" style="line;strokeWidth=1;fillColor=none;align=left;verticalAlign=middle;spacingTop=-1;spacingLeft=3;spacingRight=3;rotatable=0;labelPosition=right;points=[];portConstraint=eastwest;strokeColor=inherit;fontStyle=2" vertex="1" parent="novAqWidMg0muof5gRGi-8">
          <mxGeometry y="100" width="170" height="8" as="geometry" />
        </mxCell>
        <mxCell id="novAqWidMg0muof5gRGi-11" value="Room(size: int[][])&amp;lt;&amp;lt;create&amp;gt;&amp;gt;&lt;br&gt;# entered(): boolean&lt;div&gt;# solveRoomQuest()&lt;/div&gt;" style="text;strokeColor=none;fillColor=none;align=left;verticalAlign=top;spacingLeft=4;spacingRight=4;overflow=hidden;rotatable=0;points=[[0,0.5],[1,0.5]];portConstraint=eastwest;whiteSpace=wrap;html=1;fontStyle=2" vertex="1" parent="novAqWidMg0muof5gRGi-8">
          <mxGeometry y="108" width="170" height="82" as="geometry" />
        </mxCell>
        <mxCell id="novAqWidMg0muof5gRGi-12" value="wooden door" style="swimlane;fontStyle=1;align=center;verticalAlign=top;childLayout=stackLayout;horizontal=1;startSize=26;horizontalStack=0;resizeParent=1;resizeParentMax=0;resizeLast=0;collapsible=1;marginBottom=0;whiteSpace=wrap;html=1;" vertex="1" parent="WIyWlLk6GJQsqaUBKTNV-1">
          <mxGeometry x="50" y="200" width="160" height="90" as="geometry" />
        </mxCell>
        <mxCell id="novAqWidMg0muof5gRGi-13" value="&lt;i&gt;# opened: boolean&lt;/i&gt;" style="text;strokeColor=none;fillColor=none;align=left;verticalAlign=top;spacingLeft=4;spacingRight=4;overflow=hidden;rotatable=0;points=[[0,0.5],[1,0.5]];portConstraint=eastwest;whiteSpace=wrap;html=1;fontStyle=0" vertex="1" parent="novAqWidMg0muof5gRGi-12">
          <mxGeometry y="26" width="160" height="26" as="geometry" />
        </mxCell>
        <mxCell id="novAqWidMg0muof5gRGi-14" value="" style="line;strokeWidth=1;fillColor=none;align=left;verticalAlign=middle;spacingTop=-1;spacingLeft=3;spacingRight=3;rotatable=0;labelPosition=right;points=[];portConstraint=eastwest;strokeColor=inherit;fontStyle=0" vertex="1" parent="novAqWidMg0muof5gRGi-12">
          <mxGeometry y="52" width="160" height="8" as="geometry" />
        </mxCell>
        <mxCell id="novAqWidMg0muof5gRGi-15" value="&lt;i&gt;# open(): boolean&lt;/i&gt;" style="text;strokeColor=none;fillColor=none;align=left;verticalAlign=top;spacingLeft=4;spacingRight=4;overflow=hidden;rotatable=0;points=[[0,0.5],[1,0.5]];portConstraint=eastwest;whiteSpace=wrap;html=1;fontStyle=0" vertex="1" parent="novAqWidMg0muof5gRGi-12">
          <mxGeometry y="60" width="160" height="30" as="geometry" />
        </mxCell>
        <mxCell id="novAqWidMg0muof5gRGi-18" value="&lt;span&gt;iron door&lt;/span&gt;" style="swimlane;fontStyle=1;align=center;verticalAlign=top;childLayout=stackLayout;horizontal=1;startSize=26;horizontalStack=0;resizeParent=1;resizeParentMax=0;resizeLast=0;collapsible=1;marginBottom=0;whiteSpace=wrap;html=1;" vertex="1" parent="WIyWlLk6GJQsqaUBKTNV-1">
          <mxGeometry x="240" y="200" width="160" height="90" as="geometry" />
        </mxCell>
        <mxCell id="novAqWidMg0muof5gRGi-19" value="&lt;i&gt;# opened: boolean&lt;/i&gt;" style="text;strokeColor=none;fillColor=none;align=left;verticalAlign=top;spacingLeft=4;spacingRight=4;overflow=hidden;rotatable=0;points=[[0,0.5],[1,0.5]];portConstraint=eastwest;whiteSpace=wrap;html=1;fontStyle=0" vertex="1" parent="novAqWidMg0muof5gRGi-18">
          <mxGeometry y="26" width="160" height="26" as="geometry" />
        </mxCell>
        <mxCell id="novAqWidMg0muof5gRGi-20" value="" style="line;strokeWidth=1;fillColor=none;align=left;verticalAlign=middle;spacingTop=-1;spacingLeft=3;spacingRight=3;rotatable=0;labelPosition=right;points=[];portConstraint=eastwest;strokeColor=inherit;fontStyle=0" vertex="1" parent="novAqWidMg0muof5gRGi-18">
          <mxGeometry y="52" width="160" height="8" as="geometry" />
        </mxCell>
        <mxCell id="novAqWidMg0muof5gRGi-21" value="&lt;i&gt;# open(): boolean&lt;/i&gt;" style="text;strokeColor=none;fillColor=none;align=left;verticalAlign=top;spacingLeft=4;spacingRight=4;overflow=hidden;rotatable=0;points=[[0,0.5],[1,0.5]];portConstraint=eastwest;whiteSpace=wrap;html=1;fontStyle=0" vertex="1" parent="novAqWidMg0muof5gRGi-18">
          <mxGeometry y="60" width="160" height="30" as="geometry" />
        </mxCell>
        <mxCell id="novAqWidMg0muof5gRGi-32" value="" style="edgeStyle=elbowEdgeStyle;rounded=0;orthogonalLoop=1;jettySize=auto;html=1;fontSize=12;startSize=8;endSize=8;endArrow=block;endFill=0;elbow=vertical;entryX=0.156;entryY=1;entryDx=0;entryDy=0;entryPerimeter=0;" edge="1" parent="WIyWlLk6GJQsqaUBKTNV-1" source="novAqWidMg0muof5gRGi-23" target="novAqWidMg0muof5gRGi-31">
          <mxGeometry relative="1" as="geometry">
            <Array as="points">
              <mxPoint x="640" y="220" />
            </Array>
          </mxGeometry>
        </mxCell>
        <mxCell id="novAqWidMg0muof5gRGi-23" value="Player" style="swimlane;fontStyle=1;align=center;verticalAlign=top;childLayout=stackLayout;horizontal=1;startSize=26;horizontalStack=0;resizeParent=1;resizeParentMax=0;resizeLast=0;collapsible=1;marginBottom=0;whiteSpace=wrap;html=1;" vertex="1" parent="WIyWlLk6GJQsqaUBKTNV-1">
          <mxGeometry x="450" y="290" width="160" height="130" as="geometry" />
        </mxCell>
        <mxCell id="novAqWidMg0muof5gRGi-25" value="" style="line;strokeWidth=1;fillColor=none;align=left;verticalAlign=middle;spacingTop=-1;spacingLeft=3;spacingRight=3;rotatable=0;labelPosition=right;points=[];portConstraint=eastwest;strokeColor=inherit;fontStyle=0" vertex="1" parent="novAqWidMg0muof5gRGi-23">
          <mxGeometry y="26" width="160" height="8" as="geometry" />
        </mxCell>
        <mxCell id="novAqWidMg0muof5gRGi-26" value="Player(name: String, health: int)&amp;lt;&amp;lt;create&amp;gt;&amp;gt;&lt;div&gt;&lt;span style=&quot;font-style: italic;&quot;&gt;+ attack(damage: int): int&lt;/span&gt;&lt;br&gt;&lt;div&gt;+ heal(recovery: int): int&lt;/div&gt;&lt;div&gt;+ getHurt(damage: int): int&lt;/div&gt;&lt;div&gt;-&amp;nbsp; die: boolean&lt;/div&gt;&lt;/div&gt;" style="text;strokeColor=none;fillColor=none;align=left;verticalAlign=top;spacingLeft=4;spacingRight=4;overflow=hidden;rotatable=0;points=[[0,0.5],[1,0.5]];portConstraint=eastwest;whiteSpace=wrap;html=1;fontStyle=0" vertex="1" parent="novAqWidMg0muof5gRGi-23">
          <mxGeometry y="34" width="160" height="96" as="geometry" />
        </mxCell>
        <mxCell id="novAqWidMg0muof5gRGi-28" value="creatures" style="swimlane;fontStyle=3;align=center;verticalAlign=top;childLayout=stackLayout;horizontal=1;startSize=26;horizontalStack=0;resizeParent=1;resizeParentMax=0;resizeLast=0;collapsible=1;marginBottom=0;whiteSpace=wrap;html=1;" vertex="1" parent="WIyWlLk6GJQsqaUBKTNV-1">
          <mxGeometry x="750" y="30" width="160" height="170" as="geometry" />
        </mxCell>
        <mxCell id="novAqWidMg0muof5gRGi-29" value="# name: String&lt;br&gt;# health: int&lt;div&gt;# defeated: boolean&lt;/div&gt;" style="text;strokeColor=none;fillColor=none;align=left;verticalAlign=top;spacingLeft=4;spacingRight=4;overflow=hidden;rotatable=0;points=[[0,0.5],[1,0.5]];portConstraint=eastwest;whiteSpace=wrap;html=1;fontStyle=2" vertex="1" parent="novAqWidMg0muof5gRGi-28">
          <mxGeometry y="26" width="160" height="54" as="geometry" />
        </mxCell>
        <mxCell id="novAqWidMg0muof5gRGi-30" value="" style="line;strokeWidth=1;fillColor=none;align=left;verticalAlign=middle;spacingTop=-1;spacingLeft=3;spacingRight=3;rotatable=0;labelPosition=right;points=[];portConstraint=eastwest;strokeColor=inherit;fontStyle=2" vertex="1" parent="novAqWidMg0muof5gRGi-28">
          <mxGeometry y="80" width="160" height="8" as="geometry" />
        </mxCell>
        <mxCell id="novAqWidMg0muof5gRGi-31" value="LivingBeing(name: String, health: int)&amp;lt;&amp;lt;create&amp;gt;&amp;gt;&lt;div&gt;# attack(damage: int): int&lt;br&gt;&lt;div&gt;# getHurt(damage: int): int&lt;/div&gt;&lt;div&gt;# die: boolean&lt;br&gt;&lt;/div&gt;&lt;/div&gt;" style="text;strokeColor=none;fillColor=none;align=left;verticalAlign=top;spacingLeft=4;spacingRight=4;overflow=hidden;rotatable=0;points=[[0,0.5],[1,0.5]];portConstraint=eastwest;whiteSpace=wrap;html=1;fontStyle=2" vertex="1" parent="novAqWidMg0muof5gRGi-28">
          <mxGeometry y="88" width="160" height="82" as="geometry" />
        </mxCell>
        <mxCell id="novAqWidMg0muof5gRGi-37" value="" style="edgeStyle=elbowEdgeStyle;rounded=0;orthogonalLoop=1;jettySize=auto;html=1;fontSize=12;startSize=8;endSize=8;entryX=0.338;entryY=0.933;entryDx=0;entryDy=0;entryPerimeter=0;exitX=0.25;exitY=0;exitDx=0;exitDy=0;endArrow=block;endFill=0;elbow=vertical;" edge="1" parent="WIyWlLk6GJQsqaUBKTNV-1" source="novAqWidMg0muof5gRGi-12" target="novAqWidMg0muof5gRGi-3">
          <mxGeometry relative="1" as="geometry">
            <mxPoint x="89.93" y="200" as="sourcePoint" />
            <mxPoint x="128.93" y="130" as="targetPoint" />
          </mxGeometry>
        </mxCell>
        <mxCell id="novAqWidMg0muof5gRGi-38" value="" style="edgeStyle=elbowEdgeStyle;rounded=0;orthogonalLoop=1;jettySize=auto;html=1;fontSize=12;startSize=8;endSize=8;entryX=0.725;entryY=0.933;entryDx=0;entryDy=0;entryPerimeter=0;exitX=0.45;exitY=-0.011;exitDx=0;exitDy=0;exitPerimeter=0;endArrow=block;endFill=0;elbow=vertical;" edge="1" parent="WIyWlLk6GJQsqaUBKTNV-1" source="novAqWidMg0muof5gRGi-18" target="novAqWidMg0muof5gRGi-3">
          <mxGeometry relative="1" as="geometry">
            <mxPoint x="300" y="200" as="sourcePoint" />
            <mxPoint x="316.1499999999999" y="120.99000000000001" as="targetPoint" />
          </mxGeometry>
        </mxCell>
        <mxCell id="novAqWidMg0muof5gRGi-60" value="" style="edgeStyle=elbowEdgeStyle;rounded=0;orthogonalLoop=1;jettySize=auto;html=1;fontSize=12;startSize=8;endSize=8;endArrow=block;endFill=0;" edge="1" parent="WIyWlLk6GJQsqaUBKTNV-1" source="novAqWidMg0muof5gRGi-45" target="novAqWidMg0muof5gRGi-31">
          <mxGeometry relative="1" as="geometry" />
        </mxCell>
        <mxCell id="novAqWidMg0muof5gRGi-45" value="FireDragon" style="swimlane;fontStyle=1;align=center;verticalAlign=top;childLayout=stackLayout;horizontal=1;startSize=26;horizontalStack=0;resizeParent=1;resizeParentMax=0;resizeLast=0;collapsible=1;marginBottom=0;whiteSpace=wrap;html=1;" vertex="1" parent="WIyWlLk6GJQsqaUBKTNV-1">
          <mxGeometry x="810" y="290" width="160" height="130" as="geometry" />
        </mxCell>
        <mxCell id="novAqWidMg0muof5gRGi-46" value="" style="line;strokeWidth=1;fillColor=none;align=left;verticalAlign=middle;spacingTop=-1;spacingLeft=3;spacingRight=3;rotatable=0;labelPosition=right;points=[];portConstraint=eastwest;strokeColor=inherit;fontStyle=0" vertex="1" parent="novAqWidMg0muof5gRGi-45">
          <mxGeometry y="26" width="160" height="8" as="geometry" />
        </mxCell>
        <mxCell id="novAqWidMg0muof5gRGi-47" value="&lt;span&gt;FireDragon(&lt;/span&gt;name: String, health: int)&amp;lt;&amp;lt;create&amp;gt;&amp;gt;&lt;br&gt;&lt;span style=&quot;font-style: italic;&quot;&gt;+ attack(damage: int): int&lt;/span&gt;&lt;div style=&quot;font-style: italic;&quot;&gt;+ getHurt(damage: int): int&lt;/div&gt;&lt;div style=&quot;font-style: italic;&quot;&gt;+ die: boolean&lt;/div&gt;" style="text;strokeColor=none;fillColor=none;align=left;verticalAlign=top;spacingLeft=4;spacingRight=4;overflow=hidden;rotatable=0;points=[[0,0.5],[1,0.5]];portConstraint=eastwest;whiteSpace=wrap;html=1;fontStyle=0" vertex="1" parent="novAqWidMg0muof5gRGi-45">
          <mxGeometry y="34" width="160" height="96" as="geometry" />
        </mxCell>
        <mxCell id="novAqWidMg0muof5gRGi-50" value="GhostWarrior" style="swimlane;fontStyle=1;align=center;verticalAlign=top;childLayout=stackLayout;horizontal=1;startSize=26;horizontalStack=0;resizeParent=1;resizeParentMax=0;resizeLast=0;collapsible=1;marginBottom=0;whiteSpace=wrap;html=1;" vertex="1" parent="WIyWlLk6GJQsqaUBKTNV-1">
          <mxGeometry x="980" y="290" width="160" height="130" as="geometry" />
        </mxCell>
        <mxCell id="novAqWidMg0muof5gRGi-51" value="" style="line;strokeWidth=1;fillColor=none;align=left;verticalAlign=middle;spacingTop=-1;spacingLeft=3;spacingRight=3;rotatable=0;labelPosition=right;points=[];portConstraint=eastwest;strokeColor=inherit;fontStyle=0" vertex="1" parent="novAqWidMg0muof5gRGi-50">
          <mxGeometry y="26" width="160" height="8" as="geometry" />
        </mxCell>
        <mxCell id="novAqWidMg0muof5gRGi-52" value="&lt;span style=&quot;text-align: center;&quot;&gt;GhostWarrior&lt;/span&gt;&lt;span&gt;(&lt;/span&gt;name: String, health: int)&amp;lt;&amp;lt;create&amp;gt;&amp;gt;&lt;br&gt;&lt;span style=&quot;font-style: italic;&quot;&gt;+ attack(damage: int): int&lt;/span&gt;&lt;div style=&quot;font-style: italic;&quot;&gt;+ getHurt(damage: int): int&lt;/div&gt;&lt;div style=&quot;font-style: italic;&quot;&gt;+ die: boolean&lt;/div&gt;" style="text;strokeColor=none;fillColor=none;align=left;verticalAlign=top;spacingLeft=4;spacingRight=4;overflow=hidden;rotatable=0;points=[[0,0.5],[1,0.5]];portConstraint=eastwest;whiteSpace=wrap;html=1;fontStyle=0" vertex="1" parent="novAqWidMg0muof5gRGi-50">
          <mxGeometry y="34" width="160" height="96" as="geometry" />
        </mxCell>
        <mxCell id="novAqWidMg0muof5gRGi-53" value="ShadowGolem" style="swimlane;fontStyle=1;align=center;verticalAlign=top;childLayout=stackLayout;horizontal=1;startSize=26;horizontalStack=0;resizeParent=1;resizeParentMax=0;resizeLast=0;collapsible=1;marginBottom=0;whiteSpace=wrap;html=1;" vertex="1" parent="WIyWlLk6GJQsqaUBKTNV-1">
          <mxGeometry x="630" y="290" width="170" height="130" as="geometry" />
        </mxCell>
        <mxCell id="novAqWidMg0muof5gRGi-54" value="" style="line;strokeWidth=1;fillColor=none;align=left;verticalAlign=middle;spacingTop=-1;spacingLeft=3;spacingRight=3;rotatable=0;labelPosition=right;points=[];portConstraint=eastwest;strokeColor=inherit;fontStyle=0" vertex="1" parent="novAqWidMg0muof5gRGi-53">
          <mxGeometry y="26" width="170" height="8" as="geometry" />
        </mxCell>
        <mxCell id="novAqWidMg0muof5gRGi-55" value="&lt;span&gt;ShadowGolem(&lt;/span&gt;name: String, health: int)&amp;lt;&amp;lt;create&amp;gt;&amp;gt;&lt;br&gt;&lt;span style=&quot;font-style: italic;&quot;&gt;+ attack(damage: int): int&lt;/span&gt;&lt;div style=&quot;font-style: italic;&quot;&gt;+ getHurt(damage: int): int&lt;/div&gt;&lt;div style=&quot;font-style: italic;&quot;&gt;+ die: boolean&lt;/div&gt;" style="text;strokeColor=none;fillColor=none;align=left;verticalAlign=top;spacingLeft=4;spacingRight=4;overflow=hidden;rotatable=0;points=[[0,0.5],[1,0.5]];portConstraint=eastwest;whiteSpace=wrap;html=1;fontStyle=0" vertex="1" parent="novAqWidMg0muof5gRGi-53">
          <mxGeometry y="34" width="170" height="96" as="geometry" />
        </mxCell>
        <mxCell id="novAqWidMg0muof5gRGi-56" value="" style="edgeStyle=elbowEdgeStyle;rounded=0;orthogonalLoop=1;jettySize=auto;html=1;fontSize=12;startSize=8;endSize=8;entryX=0.886;entryY=0.988;entryDx=0;entryDy=0;entryPerimeter=0;endArrow=block;endFill=0;elbow=vertical;exitX=0.34;exitY=-0.016;exitDx=0;exitDy=0;exitPerimeter=0;" edge="1" parent="WIyWlLk6GJQsqaUBKTNV-1" source="novAqWidMg0muof5gRGi-50" target="novAqWidMg0muof5gRGi-31">
          <mxGeometry relative="1" as="geometry">
            <mxPoint x="925.8" y="444" as="sourcePoint" />
            <mxPoint x="815.04" y="376.1500000000001" as="targetPoint" />
          </mxGeometry>
        </mxCell>
        <mxCell id="novAqWidMg0muof5gRGi-58" value="" style="edgeStyle=elbowEdgeStyle;rounded=0;orthogonalLoop=1;jettySize=auto;html=1;fontSize=12;startSize=8;endSize=8;entryX=0.349;entryY=1.024;entryDx=0;entryDy=0;entryPerimeter=0;endArrow=block;endFill=0;elbow=vertical;" edge="1" parent="WIyWlLk6GJQsqaUBKTNV-1" source="novAqWidMg0muof5gRGi-53" target="novAqWidMg0muof5gRGi-31">
          <mxGeometry relative="1" as="geometry">
            <mxPoint x="621" y="444.00000000000006" as="sourcePoint" />
            <mxPoint x="695.04" y="375.3760000000002" as="targetPoint" />
            <Array as="points">
              <mxPoint x="730" y="240" />
            </Array>
          </mxGeometry>
        </mxCell>
        <mxCell id="novAqWidMg0muof5gRGi-61" value="ChapterOneOne" style="swimlane;fontStyle=1;align=center;verticalAlign=top;childLayout=stackLayout;horizontal=1;startSize=26;horizontalStack=0;resizeParent=1;resizeParentMax=0;resizeLast=0;collapsible=1;marginBottom=0;whiteSpace=wrap;html=1;" vertex="1" parent="WIyWlLk6GJQsqaUBKTNV-1">
          <mxGeometry x="45" y="619" width="170" height="170" as="geometry" />
        </mxCell>
        <mxCell id="novAqWidMg0muof5gRGi-62" value="- solved: boolean&lt;div&gt;- entered: boolean&lt;br&gt;- size: int [][]&lt;/div&gt;" style="text;strokeColor=none;fillColor=none;align=left;verticalAlign=top;spacingLeft=4;spacingRight=4;overflow=hidden;rotatable=0;points=[[0,0.5],[1,0.5]];portConstraint=eastwest;whiteSpace=wrap;html=1;fontStyle=0" vertex="1" parent="novAqWidMg0muof5gRGi-61">
          <mxGeometry y="26" width="170" height="54" as="geometry" />
        </mxCell>
        <mxCell id="novAqWidMg0muof5gRGi-63" value="" style="line;strokeWidth=1;fillColor=none;align=left;verticalAlign=middle;spacingTop=-1;spacingLeft=3;spacingRight=3;rotatable=0;labelPosition=right;points=[];portConstraint=eastwest;strokeColor=inherit;fontStyle=0" vertex="1" parent="novAqWidMg0muof5gRGi-61">
          <mxGeometry y="80" width="170" height="8" as="geometry" />
        </mxCell>
        <mxCell id="novAqWidMg0muof5gRGi-64" value="Room(size: int[][])&amp;lt;&amp;lt;create&amp;gt;&amp;gt;&lt;br&gt;+ entered(): boolean&lt;div&gt;+ solveRoomQuest()&lt;/div&gt;" style="text;strokeColor=none;fillColor=none;align=left;verticalAlign=top;spacingLeft=4;spacingRight=4;overflow=hidden;rotatable=0;points=[[0,0.5],[1,0.5]];portConstraint=eastwest;whiteSpace=wrap;html=1;fontStyle=0" vertex="1" parent="novAqWidMg0muof5gRGi-61">
          <mxGeometry y="88" width="170" height="82" as="geometry" />
        </mxCell>
        <mxCell id="novAqWidMg0muof5gRGi-71" value="ChapterThree" style="swimlane;fontStyle=1;align=center;verticalAlign=top;childLayout=stackLayout;horizontal=1;startSize=26;horizontalStack=0;resizeParent=1;resizeParentMax=0;resizeLast=0;collapsible=1;marginBottom=0;whiteSpace=wrap;html=1;" vertex="1" parent="WIyWlLk6GJQsqaUBKTNV-1">
          <mxGeometry x="610" y="619" width="170" height="170" as="geometry" />
        </mxCell>
        <mxCell id="novAqWidMg0muof5gRGi-72" value="- solved: boolean&lt;div&gt;- entered: boolean&lt;br&gt;- size: int [][]&lt;/div&gt;" style="text;strokeColor=none;fillColor=none;align=left;verticalAlign=top;spacingLeft=4;spacingRight=4;overflow=hidden;rotatable=0;points=[[0,0.5],[1,0.5]];portConstraint=eastwest;whiteSpace=wrap;html=1;fontStyle=0" vertex="1" parent="novAqWidMg0muof5gRGi-71">
          <mxGeometry y="26" width="170" height="54" as="geometry" />
        </mxCell>
        <mxCell id="novAqWidMg0muof5gRGi-73" value="" style="line;strokeWidth=1;fillColor=none;align=left;verticalAlign=middle;spacingTop=-1;spacingLeft=3;spacingRight=3;rotatable=0;labelPosition=right;points=[];portConstraint=eastwest;strokeColor=inherit;fontStyle=0" vertex="1" parent="novAqWidMg0muof5gRGi-71">
          <mxGeometry y="80" width="170" height="8" as="geometry" />
        </mxCell>
        <mxCell id="novAqWidMg0muof5gRGi-74" value="Room(size: int[][])&amp;lt;&amp;lt;create&amp;gt;&amp;gt;&lt;br&gt;+ entered(): boolean&lt;div&gt;+ solveRoomQuest()&lt;/div&gt;" style="text;strokeColor=none;fillColor=none;align=left;verticalAlign=top;spacingLeft=4;spacingRight=4;overflow=hidden;rotatable=0;points=[[0,0.5],[1,0.5]];portConstraint=eastwest;whiteSpace=wrap;html=1;fontStyle=0" vertex="1" parent="novAqWidMg0muof5gRGi-71">
          <mxGeometry y="88" width="170" height="82" as="geometry" />
        </mxCell>
        <mxCell id="novAqWidMg0muof5gRGi-75" value="ChapterFour&lt;div&gt;&lt;br&gt;&lt;/div&gt;" style="swimlane;fontStyle=1;align=center;verticalAlign=top;childLayout=stackLayout;horizontal=1;startSize=26;horizontalStack=0;resizeParent=1;resizeParentMax=0;resizeLast=0;collapsible=1;marginBottom=0;whiteSpace=wrap;html=1;" vertex="1" parent="WIyWlLk6GJQsqaUBKTNV-1">
          <mxGeometry x="800" y="619" width="170" height="170" as="geometry" />
        </mxCell>
        <mxCell id="novAqWidMg0muof5gRGi-76" value="- solved: boolean&lt;div&gt;- entered: boolean&lt;br&gt;- size: int [][]&lt;/div&gt;" style="text;strokeColor=none;fillColor=none;align=left;verticalAlign=top;spacingLeft=4;spacingRight=4;overflow=hidden;rotatable=0;points=[[0,0.5],[1,0.5]];portConstraint=eastwest;whiteSpace=wrap;html=1;fontStyle=0" vertex="1" parent="novAqWidMg0muof5gRGi-75">
          <mxGeometry y="26" width="170" height="54" as="geometry" />
        </mxCell>
        <mxCell id="novAqWidMg0muof5gRGi-77" value="" style="line;strokeWidth=1;fillColor=none;align=left;verticalAlign=middle;spacingTop=-1;spacingLeft=3;spacingRight=3;rotatable=0;labelPosition=right;points=[];portConstraint=eastwest;strokeColor=inherit;fontStyle=0" vertex="1" parent="novAqWidMg0muof5gRGi-75">
          <mxGeometry y="80" width="170" height="8" as="geometry" />
        </mxCell>
        <mxCell id="novAqWidMg0muof5gRGi-78" value="Room(size: int[][])&amp;lt;&amp;lt;create&amp;gt;&amp;gt;&lt;br&gt;+ entered(): boolean&lt;div&gt;+ solveRoomQuest()&lt;/div&gt;" style="text;strokeColor=none;fillColor=none;align=left;verticalAlign=top;spacingLeft=4;spacingRight=4;overflow=hidden;rotatable=0;points=[[0,0.5],[1,0.5]];portConstraint=eastwest;whiteSpace=wrap;html=1;fontStyle=0" vertex="1" parent="novAqWidMg0muof5gRGi-75">
          <mxGeometry y="88" width="170" height="82" as="geometry" />
        </mxCell>
        <mxCell id="novAqWidMg0muof5gRGi-79" value="ChapterOneTwo" style="swimlane;fontStyle=1;align=center;verticalAlign=top;childLayout=stackLayout;horizontal=1;startSize=26;horizontalStack=0;resizeParent=1;resizeParentMax=0;resizeLast=0;collapsible=1;marginBottom=0;whiteSpace=wrap;html=1;" vertex="1" parent="WIyWlLk6GJQsqaUBKTNV-1">
          <mxGeometry x="230" y="619" width="170" height="170" as="geometry" />
        </mxCell>
        <mxCell id="novAqWidMg0muof5gRGi-80" value="- solved: boolean&lt;div&gt;- entered: boolean&lt;br&gt;- size: int [][]&lt;/div&gt;" style="text;strokeColor=none;fillColor=none;align=left;verticalAlign=top;spacingLeft=4;spacingRight=4;overflow=hidden;rotatable=0;points=[[0,0.5],[1,0.5]];portConstraint=eastwest;whiteSpace=wrap;html=1;fontStyle=0" vertex="1" parent="novAqWidMg0muof5gRGi-79">
          <mxGeometry y="26" width="170" height="54" as="geometry" />
        </mxCell>
        <mxCell id="novAqWidMg0muof5gRGi-81" value="" style="line;strokeWidth=1;fillColor=none;align=left;verticalAlign=middle;spacingTop=-1;spacingLeft=3;spacingRight=3;rotatable=0;labelPosition=right;points=[];portConstraint=eastwest;strokeColor=inherit;fontStyle=0" vertex="1" parent="novAqWidMg0muof5gRGi-79">
          <mxGeometry y="80" width="170" height="8" as="geometry" />
        </mxCell>
        <mxCell id="novAqWidMg0muof5gRGi-82" value="Room(size: int[][])&amp;lt;&amp;lt;create&amp;gt;&amp;gt;&lt;br&gt;+ entered(): boolean&lt;div&gt;+ solveRoomQuest()&lt;/div&gt;" style="text;strokeColor=none;fillColor=none;align=left;verticalAlign=top;spacingLeft=4;spacingRight=4;overflow=hidden;rotatable=0;points=[[0,0.5],[1,0.5]];portConstraint=eastwest;whiteSpace=wrap;html=1;fontStyle=0" vertex="1" parent="novAqWidMg0muof5gRGi-79">
          <mxGeometry y="88" width="170" height="82" as="geometry" />
        </mxCell>
        <mxCell id="novAqWidMg0muof5gRGi-83" value="ChapterTwo" style="swimlane;fontStyle=1;align=center;verticalAlign=top;childLayout=stackLayout;horizontal=1;startSize=26;horizontalStack=0;resizeParent=1;resizeParentMax=0;resizeLast=0;collapsible=1;marginBottom=0;whiteSpace=wrap;html=1;" vertex="1" parent="WIyWlLk6GJQsqaUBKTNV-1">
          <mxGeometry x="420" y="619" width="170" height="170" as="geometry" />
        </mxCell>
        <mxCell id="novAqWidMg0muof5gRGi-84" value="- solved: boolean&lt;div&gt;- entered: boolean&lt;br&gt;- size: int [][]&lt;/div&gt;" style="text;strokeColor=none;fillColor=none;align=left;verticalAlign=top;spacingLeft=4;spacingRight=4;overflow=hidden;rotatable=0;points=[[0,0.5],[1,0.5]];portConstraint=eastwest;whiteSpace=wrap;html=1;fontStyle=0" vertex="1" parent="novAqWidMg0muof5gRGi-83">
          <mxGeometry y="26" width="170" height="54" as="geometry" />
        </mxCell>
        <mxCell id="novAqWidMg0muof5gRGi-85" value="" style="line;strokeWidth=1;fillColor=none;align=left;verticalAlign=middle;spacingTop=-1;spacingLeft=3;spacingRight=3;rotatable=0;labelPosition=right;points=[];portConstraint=eastwest;strokeColor=inherit;fontStyle=0" vertex="1" parent="novAqWidMg0muof5gRGi-83">
          <mxGeometry y="80" width="170" height="8" as="geometry" />
        </mxCell>
        <mxCell id="novAqWidMg0muof5gRGi-86" value="Room(size: int[][])&amp;lt;&amp;lt;create&amp;gt;&amp;gt;&lt;br&gt;+ entered(): boolean&lt;div&gt;+ solveRoomQuest()&lt;/div&gt;" style="text;strokeColor=none;fillColor=none;align=left;verticalAlign=top;spacingLeft=4;spacingRight=4;overflow=hidden;rotatable=0;points=[[0,0.5],[1,0.5]];portConstraint=eastwest;whiteSpace=wrap;html=1;fontStyle=0" vertex="1" parent="novAqWidMg0muof5gRGi-83">
          <mxGeometry y="88" width="170" height="82" as="geometry" />
        </mxCell>
        <mxCell id="novAqWidMg0muof5gRGi-87" value="" style="rounded=0;orthogonalLoop=1;jettySize=auto;html=1;fontSize=12;startSize=8;endSize=8;endArrow=block;endFill=0;edgeStyle=elbowEdgeStyle;" edge="1" parent="WIyWlLk6GJQsqaUBKTNV-1" source="novAqWidMg0muof5gRGi-61">
          <mxGeometry relative="1" as="geometry">
            <mxPoint x="90" y="619" as="sourcePoint" />
            <mxPoint x="89.99999999999999" y="509" as="targetPoint" />
            <Array as="points">
              <mxPoint x="90" y="559.02" />
            </Array>
          </mxGeometry>
        </mxCell>
        <mxCell id="novAqWidMg0muof5gRGi-88" value="" style="rounded=0;orthogonalLoop=1;jettySize=auto;html=1;fontSize=12;startSize=8;endSize=8;endArrow=block;endFill=0;edgeStyle=elbowEdgeStyle;entryX=0.659;entryY=1.037;entryDx=0;entryDy=0;entryPerimeter=0;elbow=vertical;" edge="1" parent="WIyWlLk6GJQsqaUBKTNV-1" source="novAqWidMg0muof5gRGi-79" target="novAqWidMg0muof5gRGi-11">
          <mxGeometry relative="1" as="geometry">
            <mxPoint x="260" y="619" as="sourcePoint" />
            <mxPoint x="259.99" y="509" as="targetPoint" />
            <Array as="points">
              <mxPoint x="220" y="580" />
            </Array>
          </mxGeometry>
        </mxCell>
        <mxCell id="novAqWidMg0muof5gRGi-89" value="" style="rounded=0;orthogonalLoop=1;jettySize=auto;html=1;fontSize=12;startSize=8;endSize=8;endArrow=block;endFill=0;edgeStyle=elbowEdgeStyle;entryX=0.829;entryY=1.024;entryDx=0;entryDy=0;entryPerimeter=0;elbow=vertical;" edge="1" parent="WIyWlLk6GJQsqaUBKTNV-1" source="novAqWidMg0muof5gRGi-83" target="novAqWidMg0muof5gRGi-11">
          <mxGeometry relative="1" as="geometry">
            <mxPoint x="450.01" y="619" as="sourcePoint" />
            <mxPoint x="450" y="509" as="targetPoint" />
            <Array as="points">
              <mxPoint x="300" y="550" />
            </Array>
          </mxGeometry>
        </mxCell>
        <mxCell id="novAqWidMg0muof5gRGi-90" value="" style="rounded=0;orthogonalLoop=1;jettySize=auto;html=1;fontSize=12;startSize=8;endSize=8;endArrow=block;endFill=0;edgeStyle=elbowEdgeStyle;entryX=1.006;entryY=0.732;entryDx=0;entryDy=0;entryPerimeter=0;" edge="1" parent="WIyWlLk6GJQsqaUBKTNV-1" source="novAqWidMg0muof5gRGi-71" target="novAqWidMg0muof5gRGi-11">
          <mxGeometry relative="1" as="geometry">
            <mxPoint x="650.01" y="619" as="sourcePoint" />
            <mxPoint x="650" y="509" as="targetPoint" />
            <Array as="points">
              <mxPoint x="650" y="560" />
            </Array>
          </mxGeometry>
        </mxCell>
        <mxCell id="novAqWidMg0muof5gRGi-91" value="" style="rounded=0;orthogonalLoop=1;jettySize=auto;html=1;fontSize=12;startSize=8;endSize=8;endArrow=block;endFill=0;edgeStyle=elbowEdgeStyle;entryX=1;entryY=0.5;entryDx=0;entryDy=0;exitX=0.5;exitY=0;exitDx=0;exitDy=0;" edge="1" parent="WIyWlLk6GJQsqaUBKTNV-1" source="novAqWidMg0muof5gRGi-75" target="novAqWidMg0muof5gRGi-11">
          <mxGeometry relative="1" as="geometry">
            <mxPoint x="860" y="619" as="sourcePoint" />
            <mxPoint x="820" y="509" as="targetPoint" />
            <Array as="points">
              <mxPoint x="870" y="540" />
            </Array>
          </mxGeometry>
        </mxCell>
      </root>
    </mxGraphModel>
  </diagram>
</mxfile>
